<?xml version="1.0" encoding="UTF-8" standalone="no"?>
<!-- Uploaded to: SVG Repo, www.svgrepo.com, Generator: SVG Repo Mixer Tools -->

<svg
   fill="#000000"
   height="800px"
   width="800px"
   version="1.1"
   id="Capa_1"
   viewBox="0 0 452.025 452.025"
   xml:space="preserve"
   sodipodi:docname="change-svgrepo-com.svg"
   inkscape:version="1.3.2 (091e20ef0f, 2023-11-25)"
   xmlns:inkscape="http://www.inkscape.org/namespaces/inkscape"
   xmlns:sodipodi="http://sodipodi.sourceforge.net/DTD/sodipodi-0.dtd"
   xmlns:xlink="http://www.w3.org/1999/xlink"
   xmlns="http://www.w3.org/2000/svg"
   xmlns:svg="http://www.w3.org/2000/svg"><defs
   id="defs20"><linearGradient
     id="linearGradient30"
     inkscape:collect="always"><stop
       style="stop-color:#ca46ff;stop-opacity:1;"
       offset="0"
       id="stop30" /><stop
       style="stop-color:#6459f6;stop-opacity:1;"
       offset="1"
       id="stop31" /></linearGradient><linearGradient
     inkscape:collect="always"
     xlink:href="#linearGradient30"
     id="linearGradient31"
     x1="-100.04527"
     y1="11.993563"
     x2="54.598232"
     y2="11.993563"
     gradientUnits="userSpaceOnUse" /></defs><sodipodi:namedview
   id="namedview20"
   pagecolor="#505050"
   bordercolor="#ffffff"
   borderopacity="1"
   inkscape:showpageshadow="0"
   inkscape:pageopacity="0"
   inkscape:pagecheckerboard="1"
   inkscape:deskcolor="#505050"
   inkscape:zoom="0.5"
   inkscape:cx="201"
   inkscape:cy="636"
   inkscape:window-width="1920"
   inkscape:window-height="1061"
   inkscape:window-x="1920"
   inkscape:window-y="0"
   inkscape:window-maximized="1"
   inkscape:current-layer="Capa_1"
   showgrid="true" />

<g
   id="SVGRepo_iconCarrier"
   transform="matrix(2.8696648,2.8696648,-2.8696648,2.8696648,325.63839,256.84136)"
   style="fill:url(#linearGradient31)"><path
     id="path126"
     style="fill:url(#linearGradient31)"
     d="M -95.278035 19.775818 L -56.784476 58.269377 L -18.212851 19.766589 L -56.897154 -18.605062 C -57.114501 -18.387713 -95.278035 19.775818 -95.278035 19.775818 z M -86.910254 19.780049 L -56.750058 -10.380148 L -26.589669 19.780241 L -56.749865 49.940438 L -86.910254 19.780049 z M -32.702736 -15.605252 C -33.066725 -15.241264 -33.2917 -14.738119 -33.2917 -14.181779 L -33.279778 -6.120883 C -33.279778 -5.0082062 -32.380212 -4.1086393 -31.267534 -4.1086393 L -23.194717 -4.1086393 C -22.650215 -4.1086393 -22.141076 -4.3335398 -21.774128 -4.700487 C -21.407184 -5.0674342 -21.19431 -5.5645442 -21.182473 -6.120883 C -21.182473 -7.2335598 -22.082041 -8.1331267 -23.194717 -8.1331267 L -26.414306 -8.1331267 L -19.880331 -14.667102 C -15.63085 -18.916581 -8.7297424 -18.904938 -4.4920988 -14.667294 L 0.27825506 -9.8969405 C 1.0594966 -9.1156991 2.3378055 -9.1156991 3.1190471 -9.8969405 C 3.9002885 -10.678182 3.9002885 -11.956492 3.1190471 -12.737732 L -1.6513069 -17.508086 C -7.4632708 -23.32005 -16.921081 -23.308362 -22.733045 -17.496357 L -29.26702 -10.962382 L -29.267212 -14.181779 C -29.267212 -15.294457 -30.16678 -16.194023 -31.279456 -16.194023 C -31.835795 -16.194023 -32.33875 -15.969238 -32.702736 -15.605252 z M 19.094897 -14.161205 L 23.276672 -9.97943 L 27.458447 -14.161205 L 23.276672 -18.34298 L 19.094897 -14.161205 z M -15.229385 20.198072 L -11.04761 24.379847 L -6.8658349 20.198072 L -11.04761 16.016297 L -15.229385 20.198072 z M -6.6570154 11.625703 L -2.4752404 15.807478 L 1.7065347 11.625703 L -2.4752404 7.4439276 L -6.6570154 11.625703 z M 1.9326597 3.0360275 L 6.1144347 7.2178026 L 10.29621 3.0360275 L 6.1144347 -1.1457475 L 1.9326597 3.0360275 z M 10.522527 -5.5538398 L 14.704302 -1.3720648 L 18.886077 -5.5538398 L 14.704302 -9.7356149 L 10.522527 -5.5538398 z M -6.6570154 28.770442 L -2.4752404 32.952217 L 1.7065347 28.770442 L -2.4752404 24.588667 L -6.6570154 28.770442 z M 27.684764 -5.5713376 L 31.866539 -1.3895626 L 36.048314 -5.5713376 L 31.866539 -9.7531126 L 27.684764 -5.5713376 z M 6.3968988 15.922655 C 6.1391266 16.208323 6.0000262 16.450809 6.0000262 16.634103 C 6.0000262 18.046097 11.404163 14.967901 20.399923 14.242677 L 20.399923 15.685186 C 20.399923 16.21574 20.802947 16.646025 21.3 16.646025 L 26.700082 16.646025 C 27.197135 16.646025 27.599967 16.215932 27.599967 15.685378 L 27.599967 14.242485 C 36.595727 14.967709 42.000056 18.046097 42.000056 16.634103 C 42.000056 15.167752 33.093854 9.9126201 25.800004 9.0733355 L 25.800004 8.9606575 C 25.800004 8.430102 25.397172 8.0000106 24.900119 8.0000106 L 23.099963 8.0000106 C 22.60291 8.0000106 22.200078 8.430102 22.200078 8.9606575 L 22.199886 9.0739123 C 15.817767 9.8077132 8.201303 13.922985 6.3968988 15.922655 z M 36.257134 3.001032 L 40.438909 7.182807 L 44.620684 3.001032 L 40.438909 -1.180743 L 36.257134 3.001032 z M 1.9330443 37.360502 L 6.1148193 41.542277 L 10.296594 37.360502 L 6.1148193 33.178727 L 1.9330443 37.360502 z M 21.792822 18.29293 C 21.611858 18.473895 21.499975 18.723813 21.499975 18.999956 L 21.499975 39.500037 C 21.499975 40.880743 22.619335 42.000103 24.000041 42.000103 C 25.38075 42.000103 26.500107 40.880743 26.500107 39.500037 L 26.500107 18.999956 C 26.500107 18.447671 26.052327 17.999891 25.500042 17.999891 L 22.50004 17.999891 C 22.223898 17.999891 21.973786 18.111966 21.792822 18.29293 z M 44.864499 11.608397 L 49.046274 15.790172 L 53.228049 11.608397 L 49.046274 7.4266221 L 44.864499 11.608397 z M 10.522912 45.950369 L 14.704687 50.132144 L 18.886462 45.950369 L 14.704687 41.768594 L 10.522912 45.950369 z M 53.454366 20.198265 L 57.636141 24.38004 L 61.817916 20.198265 L 57.636141 16.01649 L 53.454366 20.198265 z M 19.095474 54.557542 L 23.277249 58.739317 L 27.459024 54.557542 L 23.277249 50.375767 L 19.095474 54.557542 z M 27.685341 45.967674 L 31.866924 50.149257 L 36.048699 45.967482 L 31.867116 41.785899 L 27.685341 45.967674 z M 36.275016 37.377999 L 40.456599 41.559582 L 44.638374 37.377807 L 40.456791 33.196224 L 36.275016 37.377999 z M 44.864883 28.788132 L 49.046466 32.969715 L 53.228241 28.78794 L 49.046658 24.606357 L 44.864883 28.788132 z "
     transform="translate(-6,-8)" /></g></svg>
