<svg xmlns="http://www.w3.org/2000/svg" width="162" height="34" viewBox="0 0 162 34" fill="none"><path d="M0 6.04444V30.9778L3.96582 29.9956V33.9244L24.618 28.7867V0L0 6.04444ZM22.3732 26.9733L6.21062 30.9778V29.3911L20.6522 25.7644H20.727V5.21333L3.96582 9.44444V27.6533L2.2448 28.0311V7.85778L22.3732 2.87111V26.9733ZM6.21062 11.1067L18.4822 8.08444V24.0267L6.21062 27.0489V11.1067Z" fill="white"></path><path d="M6.21045 26.9738V29.316L16.4617 26.8227V24.4805L6.21045 26.9738Z" fill="white"></path><path d="M6.21062 30.978V11.1069L3.96582 9.36914V33.8491L24.618 28.7114L22.3732 26.9736L6.21062 30.978Z" fill="white"></path><path d="M50.2088 9.06605C49.4605 8.38605 48.4878 7.93272 47.3654 7.78161C46.9913 7.70605 46.6171 7.70605 46.243 7.70605C45.8689 7.70605 45.5696 7.70605 45.4199 7.70605H40.8555V22.8172H45.4199C45.5696 22.8172 45.8689 22.8172 46.243 22.8172C46.6171 22.8172 46.9913 22.8172 47.3654 22.7416C48.4878 22.5905 49.4605 22.1372 50.2088 21.4572C50.9571 20.7772 51.5557 19.8705 51.9298 18.8127C52.304 17.7549 52.5284 16.5461 52.5284 15.2616C52.5284 13.9772 52.304 12.7683 51.9298 11.7105C51.4809 10.6527 50.9571 9.74605 50.2088 9.06605ZM50.4333 17.9816C50.2088 18.8127 49.7599 19.4927 49.2361 20.0972C48.7123 20.6261 47.964 21.0038 47.1409 21.1549C46.9164 21.2305 46.6171 21.2305 46.3178 21.2305C46.0185 21.2305 45.7192 21.2305 45.4199 21.2305H42.4268V9.14161H45.4199C45.7192 9.14161 46.0185 9.14161 46.3178 9.14161C46.6171 9.14161 46.9164 9.21717 47.1409 9.21717C48.0388 9.36828 48.7123 9.74605 49.2361 10.2749C49.7599 10.8038 50.134 11.5594 50.4333 12.3905C50.6578 13.2216 50.8074 14.2038 50.8074 15.1861C50.8074 16.2438 50.7326 17.1505 50.4333 17.9816Z" fill="white"></path><path d="M63.8271 17.5283H64.6502C64.6502 16.1683 64.5005 15.035 64.1264 14.1283C63.7523 13.1461 63.1536 12.4661 62.3305 11.9372C61.5823 11.4083 60.6095 11.1816 59.4871 11.1816C58.4396 11.1816 57.4668 11.4083 56.6437 11.9372C55.8206 12.3905 55.222 13.1461 54.773 14.0528C54.3241 14.9594 54.0996 16.0172 54.0996 17.2261C54.0996 18.435 54.3241 19.4928 54.773 20.3239C55.222 21.2305 55.8206 21.9105 56.6437 22.3639C57.4668 22.8172 58.3647 23.1194 59.4871 23.1194C60.6095 23.1194 61.5823 22.8172 62.4054 22.2883C63.3033 21.7594 63.9019 21.0039 64.3509 20.0216L62.9292 19.4928C62.555 20.1728 62.1061 20.7016 61.5075 21.0794C60.9088 21.4572 60.2354 21.6083 59.4123 21.6083C58.2151 21.6083 57.3172 21.2305 56.7185 20.3994C56.1199 19.7194 55.8206 18.7372 55.8206 17.5283H63.0788H63.8271ZM56.7934 13.7505C57.4668 12.995 58.3647 12.5416 59.562 12.5416C60.6844 12.5416 61.5823 12.9194 62.1809 13.675C62.7047 14.2794 63.004 15.1861 63.0788 16.2439H55.8954C55.9703 15.1861 56.2696 14.355 56.7934 13.7505Z" fill="white"></path><path d="M75.9492 17.5283H76.7723C76.7723 16.1683 76.6226 15.035 76.2485 14.1283C75.8743 13.1461 75.2757 12.4661 74.4526 11.9372C73.7044 11.4083 72.7316 11.1816 71.6092 11.1816C70.5616 11.1816 69.5889 11.4083 68.7658 11.9372C67.9427 12.3905 67.3441 13.1461 66.8951 14.0528C66.4462 14.9594 66.2217 16.0172 66.2217 17.2261C66.2217 18.435 66.4462 19.4928 66.8951 20.3239C67.3441 21.2305 67.9427 21.9105 68.7658 22.3639C69.5889 22.8172 70.4868 23.1194 71.6092 23.1194C72.7316 23.1194 73.7044 22.8172 74.5275 22.2883C75.4254 21.7594 76.024 21.0039 76.4729 20.0216L75.0512 19.4928C74.6771 20.1728 74.2281 20.7016 73.6295 21.0794C73.0309 21.4572 72.3575 21.6083 71.5344 21.6083C70.3372 21.6083 69.4392 21.2305 68.8406 20.3994C68.242 19.7194 67.9427 18.7372 67.9427 17.5283H75.2009H75.9492ZM68.9154 13.7505C69.5889 12.995 70.4868 12.5416 71.684 12.5416C72.8064 12.5416 73.7044 12.9194 74.303 13.675C74.8268 14.2794 75.1261 15.1861 75.2009 16.2439H68.0175C68.0924 15.1861 68.3917 14.355 68.9154 13.7505Z" fill="white"></path><path d="M86.4996 11.9372C85.7514 11.4083 84.8535 11.1816 83.8807 11.1816C82.8331 11.1816 81.9352 11.4083 81.1869 11.9372C80.738 12.2394 80.4387 12.6172 80.1394 13.0705V11.4839H78.7925V27.8794H80.3638V21.4572C80.5883 21.7594 80.8876 22.0616 81.2618 22.3639C82.01 22.8928 82.8331 23.1194 83.8807 23.1194C84.9283 23.1194 85.8262 22.8928 86.5745 22.3639C87.3227 21.835 87.8465 21.155 88.2955 20.2483C88.6696 19.3416 88.8941 18.3594 88.8941 17.2261C88.8941 16.0928 88.6696 15.1105 88.2955 14.2039C87.8465 13.1461 87.2479 12.4661 86.4996 11.9372ZM86.799 19.4172C86.5745 20.0972 86.1255 20.6261 85.6017 21.0794C85.0779 21.4572 84.4045 21.6839 83.6562 21.6839C82.8331 21.6839 82.2345 21.4572 81.7107 21.0794C81.1869 20.7016 80.8128 20.1728 80.5135 19.4928C80.289 18.8128 80.1394 18.0572 80.1394 17.1505C80.1394 16.2439 80.289 15.4883 80.5135 14.8083C80.738 14.1283 81.1869 13.5994 81.6359 13.2216C82.1597 12.8439 82.8331 12.6172 83.5814 12.6172C84.4045 12.6172 85.0779 12.8439 85.6017 13.2216C86.1255 13.5994 86.4996 14.1283 86.799 14.8839C87.0234 15.5639 87.1731 16.3194 87.1731 17.2261C87.1731 17.9816 87.0234 18.7372 86.799 19.4172Z" fill="white"></path><path d="M101.241 15.1865C100.792 14.8843 100.343 14.6576 99.8936 14.5065C99.4447 14.3554 98.9957 14.2043 98.6216 14.1287L96.0026 13.4487C95.7033 13.3732 95.404 13.2221 95.1047 13.1465C94.8054 12.9954 94.5809 12.8443 94.3565 12.6176C94.132 12.391 94.0571 12.1643 94.0571 11.7865C94.0571 11.4087 94.2068 11.1065 94.4313 10.8799C94.6558 10.6532 95.0299 10.4265 95.404 10.2754C95.7782 10.1243 96.2271 10.0487 96.6761 10.1243C97.125 10.1243 97.574 10.1999 97.9481 10.4265C98.3971 10.5776 98.6964 10.8799 98.9957 11.1821C99.295 11.4843 99.5195 11.9376 99.5943 12.391L102.662 11.8621C102.438 10.9554 101.989 10.1243 101.465 9.4443C100.941 8.7643 100.268 8.31096 99.4447 7.93319C98.6216 7.55541 97.7237 7.4043 96.6761 7.4043C95.6285 7.4043 94.7306 7.55541 93.9075 7.85763C93.0844 8.15985 92.411 8.68874 91.8872 9.36874C91.3634 10.0487 91.1389 10.8799 91.1389 11.8621C91.1389 12.6176 91.2886 13.1465 91.513 13.6754C91.7375 14.1287 92.0368 14.5065 92.411 14.8087C92.7851 15.111 93.1592 15.3376 93.5334 15.4887C93.9075 15.6399 94.2816 15.791 94.5809 15.8665L98.4719 16.9999C98.7712 17.0754 98.9957 17.2265 99.2202 17.3021C99.4447 17.3776 99.5943 17.5287 99.6692 17.6799C99.744 17.831 99.8188 17.9065 99.8936 18.0576C99.9685 18.2087 99.9685 18.3599 99.9685 18.511C99.9685 18.9643 99.8188 19.2665 99.5195 19.5687C99.2202 19.871 98.8461 20.0976 98.4719 20.2487C98.023 20.3999 97.574 20.4754 97.125 20.4754C96.302 20.4754 95.5537 20.2487 94.8802 19.7954C94.2068 19.3421 93.8327 18.6621 93.6082 17.7554L90.6899 18.2087C90.8396 19.2665 91.2137 20.0976 91.8123 20.8532C92.411 21.6087 93.0844 22.1376 93.9823 22.5154C94.8802 22.8932 95.853 23.1199 96.9754 23.1199C97.7237 23.1199 98.4719 23.0443 99.2202 22.8176C99.9685 22.591 100.567 22.3643 101.166 21.911C101.764 21.5332 102.213 21.0043 102.513 20.3999C102.812 19.7954 103.036 19.1154 103.036 18.2843C103.036 17.5287 102.887 16.9243 102.587 16.3954C102.064 15.8665 101.689 15.4887 101.241 15.1865Z" fill="white"></path><path d="M112.614 12.0883C112.539 12.0128 112.465 11.9372 112.39 11.9372C111.641 11.4083 110.744 11.1816 109.696 11.1816C108.648 11.1816 107.676 11.4083 106.927 11.9372C106.104 12.4661 105.506 13.1461 105.057 14.0528C104.608 14.9594 104.383 15.9416 104.383 17.1505C104.383 18.2839 104.608 19.2661 105.057 20.1728C105.506 21.0794 106.104 21.7594 106.853 22.2883C107.601 22.8172 108.499 23.0439 109.546 23.0439C110.594 23.0439 111.492 22.8172 112.24 22.2883V27.7283H115.084V11.4083H112.614V12.0883ZM111.567 20.0972C111.193 20.3994 110.669 20.5505 110.07 20.5505C109.472 20.5505 108.948 20.3994 108.574 20.0972C108.199 19.795 107.9 19.3416 107.676 18.8883C107.526 18.3594 107.376 17.755 107.376 17.1505C107.376 16.5461 107.451 15.9416 107.676 15.4128C107.9 14.8839 108.199 14.5061 108.574 14.1283C108.948 13.8261 109.472 13.675 110.145 13.675C110.744 13.675 111.193 13.8261 111.567 14.1283C111.941 14.4305 112.165 14.8083 112.39 15.3372C112.539 15.8661 112.614 16.4705 112.614 17.1505C112.614 17.8305 112.539 18.435 112.39 18.9639C112.165 19.4172 111.941 19.795 111.567 20.0972Z" fill="white"></path><path d="M125.484 17.2262C125.484 17.9062 125.41 18.5107 125.26 18.8885C125.11 19.3418 124.886 19.644 124.661 19.8707C124.437 20.0973 124.138 20.2485 123.913 20.324C123.614 20.3996 123.389 20.4751 123.165 20.4751C122.566 20.4751 122.117 20.324 121.743 20.0973C121.444 19.7951 121.144 19.4929 120.995 19.1151C120.845 18.7373 120.77 18.284 120.77 17.9062C120.77 17.5285 120.695 17.1507 120.695 16.924V11.5596H117.852V17.9062C117.852 18.0573 117.852 18.3596 117.927 18.8129C118.002 19.2662 118.002 19.7196 118.151 20.1729C118.301 20.7018 118.525 21.1551 118.825 21.6085C119.124 22.0618 119.573 22.4396 120.097 22.7418C120.621 23.044 121.369 23.1951 122.267 23.1951C123.389 23.1951 124.287 22.9685 125.035 22.4396C125.41 22.2129 125.709 21.9862 125.933 21.684V22.8929H128.403V11.5596H125.559L125.484 17.2262Z" fill="white"></path><path d="M140.15 13.2216C139.776 12.4661 139.178 11.9372 138.429 11.635C137.681 11.3328 136.783 11.1816 135.811 11.1816C134.464 11.1816 133.416 11.4839 132.593 12.0883C131.845 12.6928 131.246 13.4483 131.022 14.355L133.566 15.1861C133.715 14.6572 134.089 14.2794 134.538 14.1283C134.987 13.9016 135.436 13.8261 135.811 13.8261C136.559 13.8261 137.083 13.9772 137.382 14.2794C137.606 14.5061 137.756 14.8839 137.831 15.3372C137.382 15.4128 136.933 15.4883 136.484 15.5639C135.736 15.6394 135.137 15.7905 134.538 15.9416C133.94 16.0928 133.491 16.1683 133.042 16.3194C132.443 16.5461 131.994 16.8483 131.62 17.1505C131.246 17.4528 131.022 17.8305 130.872 18.2839C130.722 18.7372 130.647 19.1905 130.647 19.7194C130.647 20.3239 130.797 20.9283 131.096 21.4572C131.396 21.9861 131.77 22.3639 132.368 22.7416C132.892 23.0439 133.641 23.195 134.389 23.195C135.362 23.195 136.185 23.0439 136.783 22.6661C137.307 22.3639 137.756 21.9861 138.205 21.4572V22.8172H140.674V15.8661C140.674 15.3372 140.674 14.8839 140.599 14.4305C140.525 14.0528 140.375 13.5994 140.15 13.2216ZM137.532 19.3416C137.457 19.4928 137.307 19.7194 137.083 19.9461C136.858 20.1728 136.559 20.3994 136.259 20.5505C135.96 20.7016 135.436 20.8528 134.913 20.8528C134.613 20.8528 134.314 20.7772 134.089 20.7016C133.865 20.6261 133.641 20.475 133.566 20.2483C133.416 20.0972 133.341 19.8705 133.341 19.5683C133.341 19.4172 133.416 19.1905 133.491 19.0394C133.566 18.8883 133.715 18.7372 133.865 18.5861C134.015 18.435 134.239 18.3594 134.538 18.2083C134.763 18.1328 135.062 18.0572 135.362 17.9816C135.661 17.9061 136.11 17.8305 136.634 17.755C136.933 17.6794 137.382 17.6039 137.831 17.5283C137.831 17.755 137.831 17.9816 137.831 18.2083C137.756 18.6616 137.681 19.0394 137.532 19.3416Z" fill="white"></path><path d="M148.905 11.4092C148.531 11.4092 148.232 11.4847 147.933 11.5603C147.633 11.6358 147.334 11.787 147.035 11.9381C146.661 12.1647 146.361 12.3914 146.137 12.7692C145.987 12.9203 145.912 13.0714 145.837 13.2225V11.4092H143.368V22.7425H146.212V16.9247C146.212 16.4714 146.286 16.0936 146.361 15.7914C146.511 15.4136 146.661 15.1114 146.885 14.8847C147.11 14.6581 147.409 14.4314 147.708 14.2803C148.007 14.1292 148.382 14.0536 148.831 13.9781C149.279 13.9781 149.579 13.9781 149.953 14.0536V11.4092C149.579 11.4092 149.205 11.4092 148.905 11.4092Z" fill="white"></path><path d="M160.578 17.9061H161.925C162.075 16.5461 161.925 15.3372 161.476 14.355C161.102 13.3728 160.504 12.5416 159.68 12.0128C158.857 11.4839 157.885 11.1816 156.687 11.1816C155.565 11.1816 154.592 11.4083 153.769 11.9372C152.946 12.4661 152.273 13.1461 151.749 14.0528C151.3 14.9594 151 16.0172 151 17.3016C151 18.435 151.225 19.4172 151.749 20.3239C152.273 21.2305 152.946 21.9105 153.769 22.3639C154.667 22.8928 155.64 23.1194 156.837 23.1194C157.885 23.1194 158.932 22.8172 159.83 22.2883C160.728 21.6839 161.401 20.9283 161.85 19.8705L159.007 19.0394C158.782 19.4928 158.483 19.8705 158.109 20.0972C157.735 20.3239 157.211 20.475 156.687 20.475C155.789 20.475 155.116 20.1728 154.667 19.6439C154.368 19.1905 154.143 18.6616 154.068 17.9816H159.157L160.578 17.9061ZM156.837 13.5994C157.66 13.5994 158.259 13.8261 158.633 14.355C158.857 14.6572 159.007 15.1861 159.082 15.7905H154.143C154.218 15.2616 154.443 14.8083 154.667 14.5061C155.191 13.9016 155.864 13.5994 156.837 13.5994Z" fill="white"></path></svg>