<svg xmlns="http://www.w3.org/2000/svg" width="155" height="56" viewBox="0 0 155 56" fill="none"><path d="M146.34 1.98535H8.65987C4.42944 1.98535 1 5.41414 1 9.64376V46.6529C1 50.8826 4.42944 54.3114 8.65987 54.3114H146.34C150.571 54.3114 154 50.8826 154 46.6529V9.64376C154 5.41414 150.571 1.98535 146.34 1.98535Z" fill="white" stroke="black" stroke-width="2"></path><path d="M65.6733 36.1301H68.4604L67.0893 31.8557L65.6733 36.1301ZM65.8149 29.3721H68.4086L72.2985 40.2351H69.8096L69.1016 38.002H65.0546L64.2942 40.2351H61.8945L65.8149 29.3721Z" fill="black"></path><path d="M77.6615 32.126H79.9488L77.0115 40.235H74.7622L71.8398 32.126H74.2312L75.9281 38.1073L77.6615 32.126Z" fill="black"></path><path d="M85.3635 36.3396C85.2313 36.424 85.0971 36.4936 84.9597 36.5482C84.8275 36.5979 84.6443 36.6451 84.409 36.6898L83.9393 36.7792C83.4987 36.8586 83.1828 36.9555 82.9917 37.0697C82.669 37.2634 82.5073 37.564 82.5073 37.9712C82.5073 38.3338 82.6053 38.597 82.8011 38.761C83.0017 38.9199 83.2439 38.9994 83.5276 38.9994C83.9783 38.9994 84.3921 38.8653 84.7691 38.597C85.1508 38.3289 85.3492 37.8396 85.3635 37.1293V36.3396ZM84.0931 35.3487C84.48 35.299 84.7564 35.2369 84.9233 35.1624C85.2218 35.0333 85.3708 34.8321 85.3708 34.559C85.3708 34.2261 85.2561 33.9977 85.026 33.8735C84.8007 33.7443 84.4679 33.6798 84.0273 33.6798C83.5329 33.6798 83.1828 33.804 82.9769 34.0523C82.8301 34.2361 82.7321 34.4844 82.6832 34.7974H80.6641C80.7078 34.0871 80.9037 33.5035 81.2517 33.0465C81.8045 32.3313 82.7543 31.9736 84.1004 31.9736C84.977 31.9736 85.7552 32.15 86.4359 32.5026C87.1161 32.8553 87.4567 33.5209 87.4567 34.4994V38.2245C87.4567 38.4828 87.4615 38.7957 87.4715 39.1633C87.4857 39.4414 87.5273 39.6302 87.5962 39.7295C87.6647 39.8289 87.7673 39.9108 87.9042 39.9754V40.2883H85.6283C85.5646 40.1244 85.5203 39.9704 85.4961 39.8264C85.4714 39.6823 85.4519 39.5184 85.4372 39.3347C85.1481 39.6525 84.8154 39.9232 84.4384 40.1467C83.9883 40.41 83.4787 40.5416 82.9111 40.5416C82.1867 40.5416 81.5871 40.333 81.1122 39.9158C80.642 39.4936 80.4072 38.8976 80.4072 38.1277C80.4072 37.1293 80.7863 36.4066 81.5455 35.9596C81.9614 35.7163 82.5731 35.5424 83.3813 35.4381L84.0931 35.3487Z" fill="black"></path><path d="M91.2699 40.2351H89.1279V29.3721H91.2699V40.2351Z" fill="black"></path><path d="M97.5517 36.3396C97.4169 36.424 97.2794 36.4936 97.1397 36.5482C97.0049 36.5979 96.8174 36.6451 96.5778 36.6898L96.0981 36.7792C95.6485 36.8586 95.3262 36.9555 95.1317 37.0697C94.8019 37.2634 94.637 37.564 94.637 37.9712C94.637 38.3338 94.7369 38.597 94.9367 38.761C95.1414 38.9199 95.3885 38.9994 95.6786 38.9994C96.1378 38.9994 96.5601 38.8653 96.9447 38.597C97.3341 38.3289 97.5367 37.8396 97.5517 37.1293V36.3396ZM96.2555 35.3487C96.6498 35.299 96.9323 35.2369 97.1021 35.1624C97.4067 35.0333 97.5592 34.8321 97.5592 34.559C97.5592 34.2261 97.4416 33.9977 97.2068 33.8735C96.9769 33.7443 96.6374 33.6798 96.1878 33.6798C95.6834 33.6798 95.3262 33.804 95.1167 34.0523C94.9668 34.2361 94.8669 34.4844 94.8169 34.7974H92.7563C92.8014 34.0871 93.0012 33.5035 93.3558 33.0465C93.9204 32.3313 94.8894 31.9736 96.263 31.9736C97.1569 31.9736 97.9514 32.15 98.6454 32.5026C99.34 32.8553 99.687 33.5209 99.687 34.4994V38.2245C99.687 38.4828 99.6918 38.7957 99.702 39.1633C99.7171 39.4414 99.7595 39.6302 99.8294 39.7295C99.8992 39.8289 100.004 39.9108 100.144 39.9754V40.2883H97.8214C97.7564 40.1244 97.7112 39.9704 97.6865 39.8264C97.6613 39.6823 97.6414 39.5184 97.6264 39.3347C97.332 39.6525 96.992 39.9232 96.6073 40.1467C96.1481 40.41 95.6286 40.5416 95.049 40.5416C94.3098 40.5416 93.698 40.333 93.2134 39.9158C92.7337 39.4936 92.4941 38.8976 92.4941 38.1277C92.4941 37.1293 92.8814 36.4066 93.6555 35.9596C94.0799 35.7163 94.7046 35.5424 95.5287 35.4381L96.2555 35.3487Z" fill="black"></path><path d="M105.7 31.9736C106.539 31.9736 107.224 32.1933 107.755 32.6325C108.292 33.0669 108.56 33.7899 108.56 34.8017V40.2356H106.385V35.3273C106.385 34.9028 106.328 34.5771 106.213 34.3501C106.005 33.9355 105.608 33.7282 105.022 33.7282C104.302 33.7282 103.808 34.0318 103.54 34.6388C103.401 34.9596 103.331 35.3693 103.331 35.8678V40.2356H101.216V32.1809H103.264V33.358C103.537 32.9435 103.796 32.6449 104.039 32.4623C104.476 32.1365 105.03 31.9736 105.7 31.9736Z" fill="black"></path><path d="M115.103 35.0697C115.063 34.7678 114.961 34.4956 114.797 34.253C114.558 33.9263 114.188 33.763 113.686 33.763C112.97 33.763 112.48 34.1169 112.216 34.8247C112.077 35.2009 112.007 35.7008 112.007 36.3244C112.007 36.9184 112.077 37.3961 112.216 37.7574C112.469 38.4306 112.947 38.7671 113.648 38.7671C114.146 38.7671 114.499 38.6335 114.708 38.3663C114.916 38.0989 115.043 37.7524 115.088 37.3268H117.259C117.209 37.9703 116.975 38.5791 116.558 39.1532C115.891 40.0788 114.904 40.5416 113.596 40.5416C112.288 40.5416 111.326 40.1556 110.709 39.3834C110.093 38.6112 109.784 37.6089 109.784 36.3764C109.784 34.9856 110.125 33.904 110.806 33.1319C111.488 32.3597 112.427 31.9736 113.626 31.9736C114.645 31.9736 115.478 32.2014 116.125 32.6567C116.776 33.1121 117.161 33.9164 117.281 35.0697H115.103Z" fill="black"></path><path d="M122.886 31.9677C123.378 31.9677 123.825 32.0539 124.224 32.2265C124.629 32.399 124.961 32.6628 125.219 33.0177C125.439 33.3185 125.573 33.629 125.621 33.9495C125.67 34.265 125.695 34.7826 125.695 35.5024V40.2351H123.566V35.3323C123.566 34.8985 123.493 34.5485 123.346 34.2822C123.156 33.9076 122.796 33.7202 122.264 33.7202C121.713 33.7202 121.294 33.9076 121.006 34.2822C120.723 34.652 120.581 35.1819 120.581 35.8721V40.2351H118.504V29.3721H120.581V33.2248C120.884 32.7564 121.233 32.4311 121.628 32.2487C122.027 32.0613 122.447 31.9677 122.886 31.9677Z" fill="black"></path><path d="M130.662 33.7169C130.164 33.7169 129.776 33.8703 129.499 34.1768C129.227 34.4835 129.056 34.8989 128.986 35.4231H132.331C132.296 34.8643 132.122 34.4414 131.81 34.1546C131.503 33.8628 131.12 33.7169 130.662 33.7169ZM130.662 31.9736C131.347 31.9736 131.964 32.0997 132.512 32.352C133.061 32.6042 133.514 33.0023 133.872 33.5463C134.194 34.026 134.403 34.5824 134.499 35.2154C134.554 35.5863 134.577 36.1204 134.566 36.8178H128.933C128.963 37.6288 129.223 38.1975 129.711 38.5239C130.008 38.7267 130.365 38.828 130.783 38.828C131.226 38.828 131.586 38.7044 131.863 38.4571C132.014 38.3236 132.147 38.1382 132.263 37.9008H134.461C134.405 38.3805 134.151 38.8676 133.698 39.3621C132.993 40.1485 132.006 40.5416 130.738 40.5416C129.691 40.5416 128.767 40.2103 127.966 39.5476C127.166 38.8849 126.766 37.8068 126.766 36.3133C126.766 34.9137 127.126 33.8406 127.846 33.0938C128.571 32.347 129.509 31.9736 130.662 31.9736Z" fill="black"></path><path d="M69.085 15.9082H72.865C73.6121 15.9082 74.2142 16.1163 74.6721 16.5325C75.1293 16.9449 75.358 17.5261 75.358 18.276C75.358 18.9209 75.154 19.4834 74.7461 19.9633C74.3382 20.4394 73.7113 20.6776 72.865 20.6776H70.2228V24.1702H69.085V15.9082ZM74.2089 18.2816C74.2089 17.6742 73.9802 17.2618 73.5224 17.0443C73.2707 16.9281 72.9262 16.8699 72.4877 16.8699H70.2228V19.7327H72.4877C72.9986 19.7327 73.4119 19.6258 73.7285 19.4121C74.0484 19.1984 74.2089 18.8216 74.2089 18.2816Z" fill="black"></path><path d="M78.7946 23.5827C79.4718 23.5827 79.935 23.3233 80.1842 22.8043C80.4376 22.2815 80.5643 21.7011 80.5643 21.063C80.5643 20.4864 80.4738 20.0175 80.2923 19.6561C80.0048 19.0872 79.5096 18.8027 78.8058 18.8027C78.1818 18.8027 77.7282 19.0449 77.4445 19.5292C77.1612 20.0136 77.0191 20.5979 77.0191 21.2821C77.0191 21.9394 77.1612 22.4872 77.4445 22.9254C77.7282 23.3636 78.1781 23.5827 78.7946 23.5827ZM78.8346 17.8975C79.6172 17.8975 80.279 18.1627 80.8199 18.6932C81.3608 19.2237 81.6307 20.004 81.6307 21.0342C81.6307 22.0298 81.3927 22.8524 80.9162 23.502C80.4397 24.1517 79.7002 24.4765 78.6983 24.4765C77.8624 24.4765 77.199 24.1901 76.7071 23.6173C76.2157 23.0408 75.9697 22.2681 75.9697 21.2994C75.9697 20.2615 76.229 19.4351 76.747 18.8201C77.2651 18.205 77.9609 17.8975 78.8346 17.8975Z" fill="black"></path><path d="M83.0601 18.0508L84.234 22.8736L85.4251 18.0508H86.576L87.7724 22.8451L89.0207 18.0508H90.0465L88.2741 24.1708H87.2087L85.9663 19.4337L84.764 24.1708H83.6981L81.9375 18.0508H83.0601Z" fill="black"></path><path d="M93.3555 17.8975C93.7837 17.8975 94.1987 18.002 94.6004 18.211C95.0021 18.4162 95.3082 18.6833 95.5186 19.0123C95.721 19.3259 95.8563 19.6917 95.924 20.1098C95.9837 20.3962 96.0139 20.8531 96.0139 21.4802H91.5927C91.6117 22.1112 91.756 22.6183 92.0266 23.0016C92.2968 23.3809 92.7154 23.5706 93.2826 23.5706C93.8117 23.5706 94.2341 23.3906 94.5496 23.0306C94.7299 22.8215 94.8573 22.5796 94.9323 22.3047H95.9293C95.9034 22.5331 95.8151 22.7886 95.665 23.0712C95.5186 23.35 95.3531 23.5783 95.1692 23.7564C94.8615 24.0661 94.4804 24.2752 94.0258 24.3836C93.7816 24.4455 93.5057 24.4765 93.198 24.4765C92.4469 24.4765 91.8104 24.1958 91.2887 23.6345C90.767 23.0693 90.5059 22.2796 90.5059 21.2654C90.5059 20.2666 90.7686 19.4556 91.2945 18.8323C91.82 18.2091 92.5071 17.8975 93.3555 17.8975ZM94.972 20.6498C94.9308 20.1969 94.8351 19.835 94.685 19.5639C94.4069 19.0607 93.9433 18.8091 93.2937 18.8091C92.828 18.8091 92.4374 18.9833 92.1223 19.3317C91.8067 19.6762 91.6397 20.1156 91.6212 20.6498H94.972Z" fill="black"></path><path d="M97.084 18.0349H98.0381V19.0948C98.1162 18.8885 98.3078 18.6383 98.6132 18.3443C98.9179 18.0464 99.2693 17.8975 99.6673 17.8975C99.6862 17.8975 99.7176 17.8993 99.7627 17.9032C99.8072 17.907 99.8831 17.9146 99.991 17.9261V19.0145C99.9318 19.0031 99.8758 18.9955 99.8239 18.9917C99.7752 18.9878 99.7213 18.9859 99.6621 18.9859C99.1562 18.9859 98.7671 19.154 98.4959 19.49C98.2241 19.8223 98.0884 20.2061 98.0884 20.6415V24.1705H97.084V18.0349Z" fill="black"></path><path d="M103.226 17.8975C103.666 17.8975 104.092 18.002 104.505 18.211C104.918 18.4162 105.233 18.6833 105.448 19.0123C105.657 19.3259 105.796 19.6917 105.866 20.1098C105.927 20.3962 105.958 20.8531 105.958 21.4802H101.414C101.433 22.1112 101.582 22.6183 101.86 23.0016C102.138 23.3809 102.568 23.5706 103.151 23.5706C103.695 23.5706 104.129 23.3906 104.453 23.0306C104.638 22.8215 104.769 22.5796 104.846 22.3047H105.871C105.844 22.5331 105.754 22.7886 105.599 23.0712C105.448 23.35 105.279 23.5783 105.09 23.7564C104.773 24.0661 104.381 24.2752 103.915 24.3836C103.664 24.4455 103.38 24.4765 103.064 24.4765C102.292 24.4765 101.638 24.1958 101.101 23.6345C100.565 23.0693 100.297 22.2796 100.297 21.2654C100.297 20.2666 100.567 19.4556 101.107 18.8323C101.647 18.2091 102.354 17.8975 103.226 17.8975ZM104.887 20.6498C104.845 20.1969 104.746 19.835 104.592 19.5639C104.306 19.0607 103.83 18.8091 103.162 18.8091C102.684 18.8091 102.282 18.9833 101.958 19.3317C101.634 19.6762 101.462 20.1156 101.443 20.6498H104.887Z" fill="black"></path><path d="M107.643 21.2401C107.643 21.9015 107.78 22.4552 108.054 22.9012C108.329 23.3473 108.769 23.5703 109.375 23.5703C109.845 23.5703 110.231 23.3646 110.532 22.9531C110.836 22.5379 110.989 21.9438 110.989 21.1709C110.989 20.3903 110.833 19.8135 110.52 19.4405C110.208 19.0637 109.823 18.8753 109.364 18.8753C108.852 18.8753 108.436 19.0753 108.117 19.4751C107.801 19.875 107.643 20.4634 107.643 21.2401ZM109.172 17.9697C109.635 17.9697 110.022 18.0697 110.334 18.2697C110.515 18.385 110.72 18.5869 110.949 18.8753V15.7549H111.925V24.2567H111.011V23.3973C110.774 23.778 110.494 24.0529 110.171 24.2221C109.847 24.3913 109.476 24.4759 109.059 24.4759C108.385 24.4759 107.802 24.1875 107.31 23.6107C106.817 23.0301 106.57 22.2591 106.57 21.2978C106.57 20.398 106.794 19.6193 107.242 18.9618C107.694 18.3004 108.337 17.9697 109.172 17.9697Z" fill="black"></path><path d="M116.056 15.7549H117.078V18.7832C117.308 18.4916 117.582 18.27 117.901 18.1185C118.221 17.9632 118.567 17.8855 118.941 17.8855C119.72 17.8855 120.351 18.1469 120.834 18.6696C121.32 19.1885 121.564 19.9555 121.564 20.9707C121.564 21.9328 121.324 22.732 120.845 23.3683C120.366 24.0047 119.702 24.3229 118.854 24.3229C118.378 24.3229 117.978 24.2112 117.65 23.9877C117.456 23.8551 117.247 23.643 117.025 23.3513V24.1297H116.056V15.7549ZM118.789 23.4195C119.358 23.4195 119.782 23.1998 120.063 22.7604C120.347 22.321 120.489 21.7415 120.489 21.0218C120.489 20.3817 120.347 19.8514 120.063 19.4309C119.782 19.0105 119.368 18.8002 118.818 18.8002C118.339 18.8002 117.919 18.9726 117.557 19.3173C117.199 19.662 117.019 20.2302 117.019 21.0218C117.019 21.5938 117.093 22.0578 117.241 22.4139C117.518 23.0843 118.034 23.4195 118.789 23.4195Z" fill="black"></path><path d="M126.257 18.0508H127.377C127.235 18.4404 126.918 19.3294 126.426 20.7176C126.059 21.7617 125.751 22.6128 125.504 23.271C124.919 24.822 124.506 25.7677 124.266 26.1081C124.026 26.4486 123.613 26.6188 123.028 26.6188C122.886 26.6188 122.775 26.6131 122.696 26.6018C122.621 26.5904 122.527 26.5696 122.415 26.5394V25.6088C122.591 25.658 122.719 25.6882 122.797 25.6996C122.876 25.7109 122.945 25.7166 123.005 25.7166C123.193 25.7166 123.33 25.6844 123.416 25.6201C123.506 25.5596 123.581 25.4839 123.641 25.3932C123.66 25.3629 123.727 25.2078 123.844 24.9279C123.96 24.6479 124.045 24.4399 124.097 24.3038L121.869 18.0508H123.017L124.631 22.9987L126.257 18.0508Z" fill="black"></path><path fill-rule="evenodd" clip-rule="evenodd" d="M54.397 28.1477C54.397 37.3582 46.9305 44.8247 37.72 44.8247C28.5096 44.8247 21.043 37.3582 21.043 28.1477C21.043 18.9372 28.5096 11.4707 37.72 11.4707C46.9305 11.4707 54.397 18.9372 54.397 28.1477ZM32.9945 34.7844H29.7579C29.0778 34.7844 28.7419 34.7844 28.537 34.6533C28.3158 34.5099 28.1806 34.2723 28.1642 34.0101C28.1519 33.7684 28.3199 33.4734 28.6558 32.8835L36.6473 18.7975C36.9874 18.1994 37.1594 17.9003 37.3765 17.7897C37.6101 17.6709 37.8886 17.6709 38.1222 17.7897C38.3393 17.9003 38.5114 18.1994 38.8514 18.7975L40.4943 21.6653L40.5027 21.68C40.8699 22.3217 41.0562 22.6471 41.1375 22.9886C41.2276 23.3615 41.2276 23.7548 41.1375 24.1276C41.0556 24.4717 40.8712 24.7995 40.4984 25.4509L36.3007 32.8712L36.2898 32.8902C35.9201 33.5372 35.7328 33.8651 35.4731 34.1125C35.1904 34.3829 34.8504 34.5796 34.4775 34.6902C34.1375 34.7844 33.7565 34.7844 32.9945 34.7844ZM41.1681 34.7846H45.8058C46.49 34.7846 46.8341 34.7846 47.039 34.6494C47.2602 34.506 47.3995 34.2642 47.4118 34.0021C47.4237 33.7683 47.2593 33.4848 46.9372 32.9291C46.9263 32.9102 46.9151 32.8909 46.9037 32.8713L44.5808 28.8973L44.5543 28.8526C44.2279 28.3006 44.063 28.0218 43.8516 27.9141C43.618 27.7953 43.3435 27.7953 43.11 27.9141C42.897 28.0247 42.7249 28.3156 42.3848 28.9014L40.0701 32.8754L40.0622 32.8891C39.7233 33.474 39.554 33.7663 39.5662 34.0062C39.5826 34.2684 39.7178 34.51 39.939 34.6535C40.1398 34.7846 40.4839 34.7846 41.1681 34.7846Z" fill="black"></path></svg>