<svg enable-background="new 0 0 260 260" viewBox="0 0 260 260" xmlns="http://www.w3.org/2000/svg" xmlns:xlink="http://www.w3.org/1999/xlink"><linearGradient id="a" gradientTransform="matrix(1 0 0 -1 0 260)" gradientUnits="userSpaceOnUse" x1="47.1" x2="210.5" y1="169.35" y2="169.35"><stop offset="0" stop-color="#00cdac"/><stop offset="1" stop-color="#02aab0"/><stop offset="1" stop-color="#02a9ae"/></linearGradient><linearGradient id="b" gradientTransform="matrix(1 0 0 -1 0 -774)" gradientUnits="userSpaceOnUse" x1="76.1" x2="127.2532" y1="-900.9" y2="-900.9"><stop offset="0" stop-color="#00cdac"/><stop offset="1" stop-color="#01b8ae"/></linearGradient><path d="m154.7 155.1v-99.6l-76.3 22.5v-7.4l93-30.3v114.8h9.2v-82.9l20.4-4.3v87.2h9.5v-100.4l-29.9 7.1v-35.6l-111.7 39.7v15.2l-21.8 6.3v67.7h9.5l.1-61.4 88.5-22.5v83.9z" fill="url(#a)"/><path d="m76.1 154.5v-46.2l51.3-9v55.2z" fill="url(#b)"/><g fill="#fff"><path d="m19.9 212.3c-.7-.5-1.4-.9-2.2-1.2-.7-.3-1.4-.5-1.9-.6l-5.3-1.5c-.7-.2-1.4-.5-2.2-.8-.6-.2-1.3-.6-1.8-1.2-.5-.5-.8-1.3-.8-2.2s.3-1.7.8-2.4 1.3-1.2 2.2-1.6 2-.6 3.2-.6 2.4.3 3.4.7c1 .5 1.9 1.1 2.6 2s1.1 1.9 1.3 3l2.9-.5c-.3-1.6-.9-3-1.8-4.2s-2.1-2.1-3.5-2.7-3-1-4.8-1-3.3.3-4.7.9-2.5 1.4-3.3 2.6-1.2 2.4-1.2 3.9c0 .9.1 1.7.4 2.4s.7 1.3 1.2 1.8 1.1 1 1.8 1.3c.7.4 1.5.7 2.3.9l6.7 2c.5.1.9.3 1.4.5s.9.5 1.3.8.7.7 1 1.2c.2.5.4 1.1.4 1.8 0 1.1-.3 2-.9 2.7-.6.8-1.4 1.4-2.5 1.8-1 .4-2.2.6-3.5.6-2 0-3.7-.5-5.2-1.5s-2.4-2.4-2.8-4.1l-2.8.5c.3 1.6.9 3 1.9 4.1s2.2 2 3.7 2.7 3.2.9 5.1.9c1.4 0 2.7-.2 3.9-.5 1.2-.4 2.2-.9 3.1-1.5.9-.7 1.6-1.5 2.1-2.5s.7-2.1.7-3.3c0-1.3-.2-2.3-.7-3.2-.6-1-.9-1.5-1.5-2z"/><path d="m40.4 207.6c-.5-.8-1.2-1.4-1.9-2-1.3-.9-2.9-1.4-4.8-1.4-1.8 0-3.4.5-4.7 1.4s-2.3 2.2-3 3.8-1.1 3.4-1.1 5.4.4 3.8 1.1 5.4 1.7 2.9 3.1 3.8c1.3.9 2.9 1.4 4.8 1.4s3.4-.5 4.7-1.4c.6-.4 1.1-1 1.6-1.6v11.3h2.8v-28.9h-2.5zm-2.8 14.1c-.9.7-2.1 1-3.5 1s-2.6-.4-3.5-1.1-1.6-1.7-2.1-2.9-.7-2.6-.7-4.1.2-2.9.7-4.1 1.2-2.2 2.1-2.9 2.1-1.1 3.6-1.1c1.4 0 2.6.3 3.5 1s1.6 1.6 2.1 2.8.7 2.6.7 4.2-.2 2.9-.7 4.2c-.5 1.4-1.3 2.4-2.2 3z"/><path d="m62 215.4c0 1.1-.1 2.1-.4 3s-.6 1.7-1.1 2.3-1.1 1.1-1.9 1.4c-.7.3-1.6.5-2.6.5-1.1 0-2-.2-2.7-.6s-1.3-.9-1.8-1.6-.8-1.5-1-2.5c-.2-.9-.3-2-.3-3.1v-10.2h-2.8v11c0 .9.1 1.8.3 2.7s.5 1.8.8 2.6c.4.8.9 1.5 1.5 2.2.6.6 1.4 1.1 2.3 1.5s2 .6 3.2.6c1.6 0 3.1-.4 4.4-1.1 1-.5 1.8-1.3 2.4-2.2v2.8h2.5v-19.9h-2.8z"/><path d="m85 208.3c-.5-1.3-1.4-2.3-2.7-3s-2.8-1-4.7-1c-2.2 0-4 .5-5.4 1.5s-2.3 2.4-2.8 4.2l2.7.8c.4-1.3 1.1-2.3 2-2.9 1-.6 2.1-.9 3.5-.9 2 0 3.4.5 4.2 1.4.7.9 1.1 2.2 1.1 4-.7.1-1.4.2-2.1.3-1.2.1-2.4.3-3.6.5s-2.4.2-3.4.5-1.9.6-2.7 1.1-1.4 1.1-1.8 1.9-.7 1.7-.7 2.8.3 2.1.8 3 1.3 1.6 2.3 2.2c1 .5 2.3.8 3.8.8 2 0 3.7-.5 5.2-1.4 1-.6 1.8-1.5 2.5-2.5v3.4h2.4v-12.4c0-.7 0-1.5-.1-2.2 0-.9-.2-1.5-.5-2.1zm-2.3 9.4c-.2 1-.6 1.9-1.1 2.7-.6.8-1.4 1.4-2.3 1.9-1 .5-2.1.7-3.4.7-1.1 0-1.9-.2-2.6-.5-.7-.4-1.1-.8-1.4-1.4-.3-.5-.4-1.1-.4-1.7 0-.7.2-1.3.5-1.8s.8-.9 1.3-1.2 1.1-.5 1.7-.7c.8-.2 1.8-.4 2.8-.6s2.1-.3 3.2-.4c.7-.1 1.3-.2 2-.2v1.1c-.1.8-.2 1.5-.3 2.1z"/><path d="m96.2 205.1c-.7.2-1.3.6-1.8 1.1-.4.3-.8.7-1.2 1.2-.1.2-.3.4-.4.6v-3.2h-2.5v19.9h2.7v-9.9c0-.8.1-1.6.2-2.4s.3-1.6.7-2.3c.3-.7.8-1.4 1.5-1.9.7-.6 1.5-.9 2.4-1s1.7-.1 2.4.1v-2.6c-.6-.1-1.2-.2-1.9-.2-.7.2-1.4.3-2.1.6z"/><path d="m119.4 215.5h1.5c.1-2.4-.3-4.4-1-6-.7-1.7-1.8-3-3.2-3.9s-3.1-1.4-5.1-1.4c-1.9 0-3.6.4-5 1.3s-2.5 2.1-3.3 3.7-1.2 3.5-1.2 5.7c0 2.1.4 4 1.2 5.6s1.9 2.8 3.3 3.7 3.1 1.3 5.1 1.3c1.9 0 3.7-.5 5.2-1.4 1.5-1 2.7-2.3 3.5-4.1l-2.6-1c-.6 1.3-1.5 2.2-2.5 2.9-1.1.7-2.3 1-3.8 1-2.1 0-3.7-.7-4.9-2.1-1-1.2-1.6-3-1.7-5.1h12.9zm-12.5-6.6c1.1-1.4 2.8-2.1 5-2.1 2.1 0 3.6.7 4.7 2 .9 1.1 1.4 2.6 1.6 4.6h-12.8c0-2 .5-3.5 1.5-4.5z"/><path d="m124.9 224.7h5.1v-10.7h9v-5h-9v-5.8h11.2v-5h-16.3z"/><path d="m159.7 207.9c-.7-1.3-1.8-2.3-3.1-2.8-1.4-.5-3-.8-4.7-.8-2.4 0-4.3.5-5.7 1.6-1.4 1-2.4 2.4-2.9 4.1l4.6 1.5c.3-.9.9-1.6 1.7-1.9.8-.4 1.6-.5 2.3-.5 1.3 0 2.3.3 2.9.8.4.4.7 1.1.8 1.9-.9.1-1.7.2-2.4.4-1.3.2-2.5.4-3.5.6s-1.9.5-2.7.7c-1.1.4-1.9.9-2.6 1.5s-1.1 1.3-1.4 2c-.3.8-.4 1.6-.4 2.6 0 1.1.3 2.1.8 3.1.5.9 1.3 1.7 2.3 2.2 1 .6 2.2.8 3.7.8 1.7 0 3.2-.3 4.3-.9.9-.5 1.7-1.2 2.5-2.1v2.5h4.4v-12.2c0-.9 0-1.8-.1-2.5-.2-1.1-.4-1.8-.8-2.6zm-4.6 10.8c-.1.3-.4.6-.8 1.1s-.9.8-1.5 1.1-1.4.5-2.4.5c-.6 0-1.1-.1-1.5-.3s-.7-.4-1-.8c-.2-.3-.3-.7-.3-1.2 0-.3.1-.6.2-.9s.4-.5.7-.8c.3-.2.7-.4 1.2-.6.4-.2.9-.3 1.5-.4s1.3-.3 2.3-.5c.6-.1 1.3-.2 2.1-.4 0 .4 0 .7-.1 1.2 0 .8-.2 1.5-.4 2z"/><path d="m171.5 209.8c.7-.5 1.6-.8 2.6-.8.9 0 1.8.3 2.5.9s1.3 1.4 1.6 2.4l5.1-1.3c-.4-2.1-1.5-3.7-3.1-4.9s-3.6-1.8-5.9-1.8c-2 0-3.8.5-5.3 1.4s-2.7 2.2-3.5 3.8-1.2 3.4-1.2 5.5c0 2 .4 3.8 1.2 5.4s1.9 2.9 3.4 3.8 3.3 1.4 5.4 1.4c2.3 0 4.3-.6 5.8-1.7 1.6-1.1 2.7-2.8 3.2-4.9l-5.2-1.1c-.3 1-.7 1.7-1.3 2.2s-1.5.8-2.6.8c-1.5 0-2.7-.5-3.5-1.6s-1.2-2.5-1.2-4.3c0-1.1.2-2.1.5-3 .4-1.1.8-1.8 1.5-2.2z"/><path d="m193.1 199.2h-5.1v5.6h-3.4v3.9h3.4v7.6 3.2c0 1 .3 1.9.8 2.8.5 1 1.3 1.7 2.4 2.1 1 .4 2.2.7 3.6.7 1.3 0 2.7-.1 4.1-.3v-4.2c-1.2.2-2.3.2-3.3.1s-1.7-.4-2.1-1.2c-.2-.4-.4-.9-.4-1.5s0-1.3 0-2.1v-7.2h5.8v-3.9h-5.8z"/><path d="m216.5 205.6c-1.5-.9-3.3-1.4-5.3-1.4s-3.7.4-5.3 1.3c-1.5.9-2.7 2.1-3.6 3.7s-1.3 3.4-1.3 5.5.4 3.9 1.3 5.5 2 2.8 3.6 3.8c1.5.9 3.3 1.4 5.3 1.4s3.8-.5 5.3-1.4 2.7-2.1 3.6-3.7 1.3-3.4 1.3-5.5-.4-3.9-1.3-5.5c-1-1.5-2.2-2.8-3.6-3.7zm-1.7 13.4c-.8 1.1-2 1.6-3.6 1.6s-2.8-.5-3.6-1.6-1.2-2.5-1.2-4.3c0-1.2.2-2.2.5-3.1s.9-1.6 1.6-2.1 1.6-.7 2.7-.7c1.6 0 2.8.5 3.6 1.6s1.2 2.5 1.2 4.3-.4 3.2-1.2 4.3z"/><path d="m235.2 204.8c-.6 0-1.2.1-1.8.3s-1.1.4-1.6.7c-.6.4-1.2.8-1.6 1.4-.2.3-.4.6-.6.9v-3.2h-4.5v19.9h5.1v-10.2c0-.8.1-1.5.3-2.1s.5-1.1.9-1.6.9-.8 1.5-1.1 1.3-.5 2-.5c.7-.1 1.4 0 1.9.2v-4.7c-.3-.1-.9-.1-1.6 0z"/><path d="m253.2 204.8-5.1 13.6-5.3-13.6h-5.2l8 19.8-3.3 9h4.7l11.3-28.8z"/></g></svg>