<?xml version="1.0" encoding="UTF-8" standalone="no"?>
<!-- Created with Inkscape (http://www.inkscape.org/) -->

<svg
   width="161.41748mm"
   height="133.68025mm"
   viewBox="0 0 161.41748 133.68025"
   version="1.1"
   id="svg1"
   xml:space="preserve"
   inkscape:version="1.3.2 (091e20ef0f, 2023-11-25)"
   sodipodi:docname="texttoimage.svg"
   xmlns:inkscape="http://www.inkscape.org/namespaces/inkscape"
   xmlns:sodipodi="http://sodipodi.sourceforge.net/DTD/sodipodi-0.dtd"
   xmlns:xlink="http://www.w3.org/1999/xlink"
   xmlns="http://www.w3.org/2000/svg"
   xmlns:svg="http://www.w3.org/2000/svg"><sodipodi:namedview
     id="namedview1"
     pagecolor="#ffffff"
     bordercolor="#000000"
     borderopacity="0.25"
     inkscape:showpageshadow="2"
     inkscape:pageopacity="0.0"
     inkscape:pagecheckerboard="0"
     inkscape:deskcolor="#d1d1d1"
     inkscape:document-units="mm"
     showgrid="true"
     inkscape:zoom="1.0885159"
     inkscape:cx="321.99805"
     inkscape:cy="254.47492"
     inkscape:window-width="1920"
     inkscape:window-height="1061"
     inkscape:window-x="0"
     inkscape:window-y="0"
     inkscape:window-maximized="1"
     inkscape:current-layer="layer1"><inkscape:grid
       id="grid1"
       units="px"
       originx="-0.33146505"
       originy="0.13118006"
       spacingx="4.2333333"
       spacingy="4.2333333"
       empcolor="#0099e5"
       empopacity="0.30196078"
       color="#0099e5"
       opacity="0.14901961"
       empspacing="4"
       dotted="false"
       gridanglex="30"
       gridanglez="30"
       visible="true" /></sodipodi:namedview><defs
     id="defs1"><linearGradient
       id="linearGradient3"><stop
         style="stop-color:#ca46ff;stop-opacity:1;"
         offset="0"
         id="stop2" /><stop
         style="stop-color:#928bf9;stop-opacity:1;"
         offset="1"
         id="stop3" /></linearGradient><linearGradient
       id="linearGradient4"><stop
         style="stop-color:#ca46ff;stop-opacity:1;"
         offset="0"
         id="stop8" /><stop
         style="stop-color:#928bf9;stop-opacity:1;"
         offset="1"
         id="stop9" /></linearGradient><linearGradient
       id="linearGradient4-1"><stop
         style="stop-color:#ca46ff;stop-opacity:1;"
         offset="0"
         id="stop6" /><stop
         style="stop-color:#6459f6;stop-opacity:1;"
         offset="1"
         id="stop7" /></linearGradient><inkscape:path-effect
       effect="fill_between_many"
       method="originald"
       linkedpaths="#rect1,0,1"
       id="path-effect20"
       is_visible="true"
       lpeversion="0"
       join="true"
       close="true"
       autoreverse="true" /><linearGradient
       inkscape:collect="always"
       xlink:href="#linearGradient4"
       id="linearGradient23"
       x1="0.33146504"
       y1="42.267738"
       x2="97.243294"
       y2="42.267738"
       gradientUnits="userSpaceOnUse" /><linearGradient
       inkscape:collect="always"
       xlink:href="#linearGradient3"
       id="linearGradient26"
       x1="110.31594"
       y1="36.867527"
       x2="143.78789"
       y2="36.867527"
       gradientUnits="userSpaceOnUse"
       gradientTransform="matrix(1.254362,0,0,1.2867947,-34.383732,-1.2461083)" /></defs><g
     inkscape:label="Layer 1"
     inkscape:groupmode="layer"
     id="layer1"
     transform="translate(-0.33146504,0.13118006)"><path
       d="M 82.014695,90.743986 V 120.33528 H 77.527587 V 90.743986 H 66.09727 v -3.684151 h 27.347741 v 3.684151 z m 13.697486,17.712264 q 0,4.39265 1.81846,6.7779 1.818459,2.38525 5.313679,2.38525 2.76311,0 4.41626,-1.10997 1.67676,-1.10997 2.26717,-2.81034 l 3.73138,1.06273 q -2.29078,6.04579 -10.41481,6.04579 -5.667924,0 -8.643585,-3.37714 -2.952045,-3.37714 -2.952045,-10.03695 0,-6.32919 2.952045,-9.706325 2.975661,-3.377139 8.478275,-3.377139 11.265,0 11.265,13.579404 v 0.56679 z m 13.839189,-3.25905 q -0.35425,-4.0384 -2.05463,-5.880476 -1.70037,-1.865692 -4.88858,-1.865692 -3.093745,0 -4.912205,2.078239 -1.794843,2.054619 -1.936541,5.667929 z m 25.45843,15.13808 -6.87236,-10.48566 -6.91959,10.48566 h -4.58158 l 9.0923,-13.13069 -8.6672,-12.422207 h 4.69965 l 6.37642,9.942487 6.32918,-9.942487 h 4.74689 l -8.6672,12.374967 9.21038,13.17793 z m 18.34991,-0.18893 q -2.10186,0.56679 -4.29818,0.56679 -5.10113,0 -5.10113,-5.786 V 97.876126 h -2.95205 v -3.093743 h 3.11736 l 1.25167,-5.715158 h 2.83396 v 5.715158 h 4.72327 v 3.093743 h -4.72327 V 114.0061 q 0,1.84207 0.59041,2.5978 0.61403,0.7321 2.10186,0.7321 0.85018,0 2.4561,-0.33062 z"
       id="text23"
       style="font-size:48.3663px;fill-rule:evenodd;stroke-width:64.4883;stroke-linecap:round;stroke-linejoin:round;fill:#ffffff;fill-opacity:1"
       aria-label="Text" /><rect
       style="fill:none;fill-opacity:1;fill-rule:evenodd;stroke:#ffffff;stroke-width:3.76324;stroke-linecap:round;stroke-linejoin:round;stroke-dasharray:none;stroke-opacity:1;paint-order:normal"
       id="rect23"
       width="99.601326"
       height="55.467457"
       x="60.265995"
       y="76.199997" /><path
       d="m 0.33146504,11.982783 c 0,-6.6816046 5.43235846,-12.11396306 12.11396296,-12.11396306 h 72.683876 c 6.681633,0 12.113992,5.43235846 12.113992,12.11396306 v 60.569913 c 0,6.681605 -5.432359,12.113964 -12.113992,12.113964 H 12.445428 c -6.6816045,0 -12.11396296,-5.432359 -12.11396296,-12.113964 z M 61.620615,32.141217 c -0.851832,-1.249248 -2.252399,-1.987533 -3.747764,-1.987533 -1.495342,0 -2.914909,0.738285 -3.747763,1.987533 l -16.467419,24.152267 -5.015966,-6.26519 c -0.870604,-1.078926 -2.176625,-1.703435 -3.539533,-1.703435 -1.362795,0 -2.687793,0.624509 -3.539557,1.703435 l -12.113987,15.14249 c -1.097926,1.362794 -1.30602,3.236711 -0.548963,4.807735 0.757057,1.571117 2.347083,2.574223 4.088474,2.574223 h 18.170969 6.056981 39.370443 c 1.684666,0 3.236713,-0.927378 4.012747,-2.422811 0.776054,-1.495342 0.68151,-3.293484 -0.264871,-4.675233 z M 21.530914,30.153684 a 9.0854845,9.0854845 0 1 0 0,-18.170969 9.0854845,9.0854845 0 1 0 0,18.170969 z"
       id="path1"
       style="fill:url(#linearGradient23);stroke-width:0.189281" /><path
       id="path24"
       style="fill:none;fill-opacity:1;fill-rule:evenodd;stroke:url(#linearGradient26);stroke-width:4.86336;stroke-linecap:round;stroke-linejoin:round;stroke-dasharray:none;paint-order:normal"
       d="m 114.29999,42.333332 -7.90674,-8.244781 7.90674,-8.097509 m -7.90674,8.097511 c 20.55725,0.06213 37.18425,14.509622 37.18425,32.310055" /></g></svg>
