<?xml version="1.0" encoding="UTF-8" standalone="no"?>
<!-- Uploaded to: SVG Repo, www.svgrepo.com, Generator: SVG Repo Mixer Tools -->

<svg
   fill="#000000"
   width="800px"
   height="800px"
   viewBox="0 0 32 32"
   id="icon"
   version="1.1"
   sodipodi:docname="container-registry-svgrepo-com.svg"
   inkscape:version="1.3.2 (091e20ef0f, 2023-11-25)"
   xmlns:inkscape="http://www.inkscape.org/namespaces/inkscape"
   xmlns:sodipodi="http://sodipodi.sourceforge.net/DTD/sodipodi-0.dtd"
   xmlns:xlink="http://www.w3.org/1999/xlink"
   xmlns="http://www.w3.org/2000/svg"
   xmlns:svg="http://www.w3.org/2000/svg">
  <sodipodi:namedview
     id="namedview3"
     pagecolor="#ffffff"
     bordercolor="#000000"
     borderopacity="0.25"
     inkscape:showpageshadow="2"
     inkscape:pageopacity="0.0"
     inkscape:pagecheckerboard="0"
     inkscape:deskcolor="#d1d1d1"
     inkscape:zoom="1.08"
     inkscape:cx="399.53704"
     inkscape:cy="400"
     inkscape:window-width="1920"
     inkscape:window-height="1061"
     inkscape:window-x="1920"
     inkscape:window-y="0"
     inkscape:window-maximized="1"
     inkscape:current-layer="icon" />
  <defs
     id="defs1">
    <linearGradient
       id="linearGradient29"
       inkscape:collect="always">
      <stop
         style="stop-color:#ca46ff;stop-opacity:1;"
         offset="0.16369711"
         id="stop29" />
      <stop
         style="stop-color:#6459f6;stop-opacity:1;"
         offset="1"
         id="stop30" />
    </linearGradient>
    <style
       id="style1">
      .cls-1 {
        fill: none;
      }
    </style>
    <linearGradient
       inkscape:collect="always"
       xlink:href="#linearGradient29"
       id="linearGradient30"
       x1="2"
       y1="16"
       x2="30"
       y2="16"
       gradientUnits="userSpaceOnUse" />
  </defs>
  <path
     id="circle3"
     d="m 8,25 a 1,1 0 0 1 -1,1 1,1 0 0 1 -1,-1 1,1 0 0 1 1,-1 1,1 0 0 1 1,1 z m 20,-5 h -2 v 2 h 2 v 6 H 4 V 22 H 6 V 20 H 4 a 2.0024,2.0024 0 0 0 -2,2 v 6 a 2.0024,2.0024 0 0 0 2,2 h 24 a 2.0024,2.0024 0 0 0 2,-2 v -6 a 2.0024,2.0024 0 0 0 -2,-2 z m 0,-9 H 19 V 2 h 9 z M 21,9 h 5 V 4 h -5 z m -4,4 V 6 H 8 V 22 H 24 V 13 Z M 10,8 h 5 v 5 h -5 z m 0,7 h 5 v 5 h -5 z m 12,5 h -5 v -5 h 5 z"
     style="fill:url(#linearGradient30)" />
</svg>
