<?xml version="1.0" encoding="UTF-8" standalone="no"?>
<svg
   height="51.329426"
   width="34.988476"
   viewBox="0 0 1119.6312 1642.5416"
   version="1.1"
   id="svg1"
   sodipodi:docname="file-contract-solid.svg"
   xml:space="preserve"
   inkscape:version="1.3.2 (091e20ef0f, 2023-11-25)"
   xmlns:inkscape="http://www.inkscape.org/namespaces/inkscape"
   xmlns:sodipodi="http://sodipodi.sourceforge.net/DTD/sodipodi-0.dtd"
   xmlns:xlink="http://www.w3.org/1999/xlink"
   xmlns="http://www.w3.org/2000/svg"
   xmlns:svg="http://www.w3.org/2000/svg"><defs
     id="defs1"><linearGradient
       id="linearGradient26"
       inkscape:collect="always"><stop
         style="stop-color:#ca46ff;stop-opacity:1;"
         offset="0"
         id="stop26" /><stop
         style="stop-color:#6459f6;stop-opacity:1;"
         offset="1"
         id="stop27" /></linearGradient><linearGradient
       inkscape:collect="always"
       xlink:href="#linearGradient26"
       id="linearGradient27"
       x1="-211.73898"
       y1="143.55273"
       x2="319.60001"
       y2="143.55273"
       gradientUnits="userSpaceOnUse" /></defs><sodipodi:namedview
     id="namedview1"
     pagecolor="#ffffff"
     bordercolor="#000000"
     borderopacity="0.25"
     inkscape:showpageshadow="2"
     inkscape:pageopacity="0.0"
     inkscape:pagecheckerboard="0"
     inkscape:deskcolor="#d1d1d1"
     showgrid="true"
     inkscape:zoom="9.5459416"
     inkscape:cx="5.2902063"
     inkscape:cy="34.360152"
     inkscape:window-width="1920"
     inkscape:window-height="1061"
     inkscape:window-x="0"
     inkscape:window-y="0"
     inkscape:window-maximized="1"
     inkscape:current-layer="g6"><inkscape:grid
       id="grid1"
       units="px"
       originx="-1.037862e-06"
       originy="-7.1707879e-06"
       spacingx="32"
       spacingy="32"
       empcolor="#0099e5"
       empopacity="0.30196078"
       color="#0099e5"
       opacity="0.14902"
       empspacing="5"
       dotted="false"
       gridanglex="30"
       gridanglez="30"
       visible="true" /></sodipodi:namedview><!--!Font Awesome Free 6.5.1 by @fontawesome - https://fontawesome.com License - https://fontawesome.com/license/free Copyright 2024 Fonticons, Inc.--><style
     type="text/css"
     id="style1">
	.st0{fill-rule:evenodd;clip-rule:evenodd;fill:#5A9DED;}
	.st1{fill-rule:evenodd;clip-rule:evenodd;fill:#D895D3;}
	.st2{fill-rule:evenodd;clip-rule:evenodd;fill:#FF9C92;}
	.st3{fill-rule:evenodd;clip-rule:evenodd;fill:#53D3E0;}
	.st4{fill-rule:evenodd;clip-rule:evenodd;fill:#A6E275;}
	.st5{fill-rule:evenodd;clip-rule:evenodd;fill:#FFE94D;}
</style><g
     id="g6"
     transform="matrix(2.1071881,0,0,2.1071881,446.17386,518.77816)">
	
	
	
	
	
	<path
   id="path6"
   class="st5"
   d="M 159.6,0 0,274.6 159.6,375.2 Z M 136,87.9 V 332.6 L 31.8,266.9 Z M 138.7,196 20.5,262.9 32.2,283.5 150.4,216.6 Z M 160.1,402.5 0,302 160.1,533.3 Z m -23.8,13.1 v 41.8 L 85,383.4 Z M 159.6,0 319.2,274.6 159.6,375.3 Z m 23.5,87.9 v 244.7 l 104.2,-65.7 z m -7.2,105.9 118.2,66.9 -11.7,20.6 -118.2,-66.9 z m -16.3,208.7 160,-100.5 -160,231.3 z m 23.8,13.1 v 41.8 l 51.3,-74 z m -332.49626,-661.79452 c -34.55131,0 -62.64272,28.09141 -62.64272,62.64272 v 375.85634 c 0,34.55131 28.09141,62.64272 62.64272,62.64272 H 2.6165865 L 57.221346,160.98317 H 23.17123 c -5.970625,0 -11.356969,-3.31604 -13.9996995,-8.60151 L 0.5700203,135.06 c -1.6639473,-3.32788 -5.0096477,-5.39819 -8.6311706,-5.39819 -3.6215227,0 -7.0354417,2.07031 -8.6015107,5.39819 l -8.60151,17.32166 c -2.838489,5.77487 -9.031595,9.18879 -15.393737,8.60151 -6.362142,-0.58727 -11.822628,-4.99481 -13.584454,-11.06332 l -16.550492,-54.515776 -9.580303,32.092536 c -5.970625,19.86945 -24.274093,33.48656 -45.024453,33.48656 h -8.03797 c -8.61335,0 -15.66068,-7.04732 -15.66068,-15.66068 0,-8.61335 7.04733,-15.66068 15.66068,-15.66068 h 8.03797 c 6.94941,0 13.0209,-4.49652 14.97849,-11.1523 l 14.563245,-48.465061 c 3.327885,-11.060336 13.513288,-18.686039 25.063021,-18.686039 11.549733,0 21.735136,7.527823 25.063021,18.686039 l 11.359926,37.787321 c 7.243045,-6.0685 16.431869,-9.491318 26.2197756,-9.491318 15.5627729,0 29.7701334,8.821028 36.7195504,22.719848 l 4.300755,8.60151 H 75.43282 l 84.17616,-144.861293 4.50838,7.7710194 V -89.587716 H 38.831911 c -17.32459,0 -31.3213618,-13.996774 -31.3213618,-31.321364 v -125.28544 z m 187.928171,0 v 125.28544 H 164.11736 Z m -172.267491,62.64272 h 62.642726 c 8.613355,0 15.66068,7.04732 15.66068,15.66068 0,8.61336 -7.047325,15.66068 -15.66068,15.66068 h -62.642726 c -8.61335,0 -15.66068,-7.04732 -15.66068,-15.66068 0,-8.61336 7.04733,-15.66068 15.66068,-15.66068 z m 0,62.64272 h 62.642726 c 8.613355,0 15.66068,7.04733 15.66068,15.66068 0,8.613358 -7.047325,15.660684 -15.66068,15.660684 h -62.642726 c -8.61335,0 -15.66068,-7.047326 -15.66068,-15.660684 0,-8.61335 7.04733,-15.66068 15.66068,-15.66068 z"
   style="fill:url(#linearGradient27);fill-rule:nonzero" />
</g></svg>
