<?xml version="1.0" encoding="UTF-8" standalone="no"?>
<!-- Uploaded to: SVG Repo, www.svgrepo.com, Generator: SVG Repo Mixer Tools -->

<svg
   width="800px"
   height="800px"
   viewBox="0 0 24 24"
   fill="none"
   version="1.1"
   id="svg4"
   sodipodi:docname="people-group-svgrepo-com.svg"
   inkscape:version="1.3.2 (091e20ef0f, 2023-11-25)"
   xmlns:inkscape="http://www.inkscape.org/namespaces/inkscape"
   xmlns:sodipodi="http://sodipodi.sourceforge.net/DTD/sodipodi-0.dtd"
   xmlns:xlink="http://www.w3.org/1999/xlink"
   xmlns="http://www.w3.org/2000/svg"
   xmlns:svg="http://www.w3.org/2000/svg">
  <defs
     id="defs4">
    <linearGradient
       id="linearGradient17"
       inkscape:collect="always">
      <stop
         style="stop-color:#ca46ff;stop-opacity:1;"
         offset="0"
         id="stop17" />
      <stop
         style="stop-color:#6459f6;stop-opacity:1;"
         offset="1"
         id="stop18" />
    </linearGradient>
    <linearGradient
       inkscape:collect="always"
       xlink:href="#linearGradient17"
       id="linearGradient18"
       x1="1.3604246"
       y1="12"
       x2="22.639592"
       y2="12"
       gradientUnits="userSpaceOnUse" />
  </defs>
  <sodipodi:namedview
     id="namedview4"
     pagecolor="#ffffff"
     bordercolor="#000000"
     borderopacity="0.25"
     inkscape:showpageshadow="2"
     inkscape:pageopacity="0.0"
     inkscape:pagecheckerboard="0"
     inkscape:deskcolor="#d1d1d1"
     inkscape:zoom="1.08"
     inkscape:cx="400.46296"
     inkscape:cy="400"
     inkscape:window-width="1916"
     inkscape:window-height="1057"
     inkscape:window-x="1922"
     inkscape:window-y="2"
     inkscape:window-maximized="0"
     inkscape:current-layer="svg4" />
  <path
     id="path4"
     d="m 20,14 h 0.3057 c 0.9777,0 1.8121,0.7068 1.9728,1.6712 l 0.3334,2 C 22.815,18.8903 21.8751,20 20.6392,20 19.4775,20 18.0952,20 17,20 M 4,14 H 3.69425 C 2.71658,14 1.8822,14.7068 1.72147,15.6712 l -0.33334,2 C 1.18496,18.8903 2.12504,20 3.36092,20 H 7 M 22,9 a 2,2 0 0 1 -2,2 2,2 0 0 1 -2,-2 2,2 0 0 1 2,-2 2,2 0 0 1 2,2 z M 6,9 A 2,2 0 0 1 4,11 2,2 0 0 1 2,9 2,2 0 0 1 4,7 2,2 0 0 1 6,9 Z M 15,5 A 3,3 0 0 1 12,8 3,3 0 0 1 9,5 3,3 0 0 1 12,2 3,3 0 0 1 15,5 Z m 1.719,14.7519 -0.6405,-5.124 C 15.8908,13.1266 14.6146,12 13.1017,12 H 12 10.8983 c -1.51292,0 -2.78913,1.1266 -2.97679,2.6279 l -0.6405,5.124 C 7.1318,20.9456 8.06257,22 9.26556,22 H 12 14.7344 c 1.203,0 2.1338,-1.0544 1.9846,-2.2481 z"
     style="stroke:url(#linearGradient18)" />
</svg>
