<?xml version="1.0" encoding="UTF-8" standalone="no"?>
<!-- Uploaded to: SVG Repo, www.svgrepo.com, Generator: SVG Repo Mixer Tools -->

<svg
   fill="#000000"
   width="720"
   height="590"
   viewBox="0 0 32.4 26.55"
   version="1.1"
   preserveAspectRatio="xMidYMid"
   id="svg7"
   sodipodi:docname="server-rack-sm-svgrepo-com.svg"
   inkscape:version="1.3.2 (091e20ef0f, 2023-11-25)"
   xmlns:inkscape="http://www.inkscape.org/namespaces/inkscape"
   xmlns:sodipodi="http://sodipodi.sourceforge.net/DTD/sodipodi-0.dtd"
   xmlns:xlink="http://www.w3.org/1999/xlink"
   xmlns="http://www.w3.org/2000/svg"
   xmlns:svg="http://www.w3.org/2000/svg"
   xmlns:rdf="http://www.w3.org/1999/02/22-rdf-syntax-ns#"
   xmlns:cc="http://creativecommons.org/ns#"
   xmlns:dc="http://purl.org/dc/elements/1.1/">
  <defs
     id="defs7">
    <linearGradient
       id="linearGradient7"
       inkscape:collect="always">
      <stop
         style="stop-color:#ca46ff;stop-opacity:1;"
         offset="0"
         id="stop7" />
      <stop
         style="stop-color:#6459f6;stop-opacity:1;"
         offset="1"
         id="stop8" />
    </linearGradient>
    <linearGradient
       inkscape:collect="always"
       xlink:href="#linearGradient7"
       id="linearGradient8"
       x1="2"
       y1="18"
       x2="34"
       y2="18"
       gradientUnits="userSpaceOnUse"
       gradientTransform="translate(-1.7499999,-4.775)" />
  </defs>
  <sodipodi:namedview
     id="namedview7"
     pagecolor="#505050"
     bordercolor="#ffffff"
     borderopacity="1"
     inkscape:showpageshadow="0"
     inkscape:pageopacity="0"
     inkscape:pagecheckerboard="1"
     inkscape:deskcolor="#505050"
     inkscape:zoom="0.7636753"
     inkscape:cx="511.34297"
     inkscape:cy="282.84272"
     inkscape:window-width="1920"
     inkscape:window-height="1061"
     inkscape:window-x="1920"
     inkscape:window-y="0"
     inkscape:window-maximized="1"
     inkscape:current-layer="svg7"
     showgrid="true">
    <inkscape:grid
       id="grid8"
       units="px"
       originx="-1.8000001"
       originy="-4.9500002"
       spacingx="0.045"
       spacingy="0.045"
       empcolor="#0099e5"
       empopacity="0.30196078"
       color="#0099e5"
       opacity="0.14901961"
       empspacing="5"
       dotted="false"
       gridanglex="30"
       gridanglez="30"
       visible="true" />
  </sodipodi:namedview>
  <title
     id="title1">rack-server-line</title>
  <path
     id="path9"
     style="fill:url(#linearGradient8)"
     d="M 0 0 L 0 26.55 L 32.4 26.55 L 32.4 0 L 0 0 z M 2.25 2.25 L 30.15 2.25 L 30.15 8.325 L 2.25 8.325 L 2.25 2.25 z M 4.05 4.05 L 4.05 6.3 L 6.3 6.3 L 6.3 4.05 L 4.05 4.05 z M 8.1 4.05 L 8.1 6.3 L 22.05 6.3 L 22.05 4.05 L 8.1 4.05 z M 2.25 10.35 L 30.15 10.35 L 30.15 16.2 L 2.25 16.2 L 2.25 10.35 z M 4.05 12.15 L 4.05 14.4 L 6.3 14.4 L 6.3 12.15 L 4.05 12.15 z M 8.1 12.15 L 8.1 14.4 L 22.05 14.4 L 22.05 12.15 L 8.1 12.15 z M 2.25 18.45 L 30.15 18.45 L 30.15 24.3 L 2.25 24.3 L 2.25 18.45 z M 4.05 20.25 L 4.05 22.5 L 6.3 22.5 L 6.3 20.25 L 4.05 20.25 z M 8.1 20.25 L 8.1 22.5 L 22.05 22.5 L 22.05 20.25 L 8.1 20.25 z " />
  <metadata
     id="metadata8">
    <rdf:RDF>
      <cc:Work
         rdf:about="">
        <dc:title>rack-server-line</dc:title>
      </cc:Work>
    </rdf:RDF>
  </metadata>
</svg>
