<svg xmlns="http://www.w3.org/2000/svg" width="60" height="60" viewBox="0 0 60 60" fill="none"><path d="M30 0C13.4375 0 0 13.4319 0 30C0 46.5681 13.4375 60 30 60C46.5625 60 60 46.5692 60 30C60 13.4308 46.5693 0 30 0ZM39.2401 44.2727C39.2401 44.2727 38.4903 46.1466 36.4299 45.2473L28.804 39.402L23.9141 43.8613C23.9141 43.8613 23.5319 44.1513 23.1138 43.9737L24.0501 35.6902L24.0816 35.7149L24.1018 35.5463C24.1018 35.5463 37.8159 23.2183 38.3779 22.6933C38.94 22.1684 38.7523 22.0571 38.7523 22.0571C38.7905 21.4197 37.7406 22.0571 37.7406 22.0571L19.5683 33.5938L11.9987 31.0465C11.9987 31.0465 10.8375 30.634 10.725 29.7347C10.6126 28.8354 12.0369 28.3487 12.0369 28.3487L42.1246 16.5456C42.1246 16.5456 44.5976 15.4586 44.5976 17.2572L39.2401 44.2727Z" fill="#120641"></path></svg>